<?xml version="1.0" standalone="no"?>
<!DOCTYPE svg PUBLIC "-//W3C//DTD SVG 20010904//EN"
 "http://www.w3.org/TR/2001/REC-SVG-20010904/DTD/svg10.dtd">
<svg version="1.0" xmlns="http://www.w3.org/2000/svg"
 width="712.000000pt" height="712.000000pt" viewBox="0 0 712.000000 712.000000"
 preserveAspectRatio="xMidYMid meet">
<metadata>
Created by potrace 1.14, written by Peter Selinger 2001-2017
</metadata>
<g transform="translate(0.000000,712.000000) scale(0.100000,-0.100000)"
fill="#000000" stroke="none">
<path d="M3155 6804 c-22 -2 -89 -9 -150 -15 -140 -13 -365 -58 -522 -103
-355 -102 -740 -305 -1048 -552 -141 -113 -346 -318 -459 -459 -404 -505 -628
-1075 -677 -1725 -15 -198 -4 -494 25 -661 4 -23 -3 -32 -50 -64 -115 -80
-198 -196 -223 -313 -28 -135 -7 -258 57 -325 29 -31 111 -77 137 -77 24 0 18
-12 -34 -78 -69 -86 -104 -163 -109 -237 -4 -59 -3 -63 28 -88 46 -39 98 -36
243 14 65 22 120 39 122 37 1 -1 17 -39 35 -83 17 -44 33 -85 36 -92 3 -7 -17
-18 -52 -28 -80 -23 -122 -46 -167 -92 -60 -59 -80 -106 -85 -199 -8 -153 46
-209 281 -290 143 -50 147 -55 147 -173 1 -186 43 -299 133 -355 65 -40 168
-46 277 -17 l75 20 29 -37 c16 -20 60 -67 97 -104 217 -213 535 -345 964 -399
129 -16 517 -16 665 0 443 48 827 137 1280 296 86 30 160 55 166 55 5 0 18
-22 28 -50 40 -111 148 -218 259 -257 72 -25 215 -25 282 1 128 49 227 151
265 273 44 143 12 260 -86 319 l-52 30 111 60 c350 187 697 418 965 642 615
512 877 1063 748 1566 l-25 99 40 45 c45 51 93 145 108 212 29 125 0 265 -71
346 -18 21 -18 21 36 33 108 24 136 108 76 228 -37 75 -129 175 -207 227 l-59
40 0 95 c0 82 -5 110 -33 191 -102 300 -293 433 -596 416 -60 -4 -122 -9 -137
-12 -23 -5 -28 -3 -28 13 0 32 -64 153 -147 278 -292 440 -703 801 -1178 1035
-328 161 -611 248 -970 295 -115 15 -466 27 -550 19z m550 -149 c783 -104
1469 -505 1939 -1132 190 -254 245 -367 246 -503 0 -133 -30 -208 -153 -380
-163 -228 -197 -259 -502 -443 -177 -107 -612 -321 -825 -405 -697 -277 -1399
-408 -1987 -373 -224 13 -430 42 -549 77 -372 107 -644 392 -740 774 -16 62
-19 112 -19 295 0 123 6 260 13 310 43 302 135 619 256 885 l67 145 -67 -65
c-384 -376 -676 -896 -804 -1435 -59 -246 -74 -383 -74 -685 -1 -292 11 -433
46 -550 21 -69 58 -141 91 -178 11 -12 16 -22 10 -22 -19 0 -120 116 -146 166
-34 66 -46 114 -62 247 -32 263 -28 552 11 802 175 1129 982 2059 2062 2376
199 58 386 91 632 113 93 8 439 -4 555 -19z m2743 -1669 c90 -61 142 -134 187
-265 85 -250 19 -307 -480 -415 -447 -97 -485 -109 -553 -171 -66 -59 -70
-105 -27 -280 42 -172 -23 -412 -138 -505 -79 -63 -212 -75 -445 -39 -186 30
-296 31 -342 3 -19 -11 -45 -35 -57 -54 -30 -43 -31 -130 -3 -225 26 -88 37
-278 21 -356 -30 -141 -120 -263 -241 -322 -62 -31 -70 -32 -180 -31 -134 0
-170 10 -464 129 -214 86 -260 101 -344 114 -156 25 -274 -38 -413 -220 -137
-181 -333 -267 -540 -239 -176 24 -309 100 -438 249 l-51 58 63 -14 c86 -21
241 -13 327 16 98 34 193 94 273 175 l72 73 122 27 c67 14 186 44 264 66 l142
39 156 -64 c308 -125 430 -151 569 -121 40 8 99 29 132 47 77 41 169 139 209
221 40 86 65 211 59 308 l-5 77 128 73 c70 39 182 107 249 151 95 62 129 79
158 79 52 0 164 25 202 45 47 24 118 93 145 139 13 23 35 70 48 106 20 54 37
78 97 135 140 134 351 368 442 489 l91 121 104 28 c220 58 320 113 364 199 16
32 20 55 17 114 -4 88 3 92 80 40z m325 -656 c59 -40 161 -149 175 -188 13
-37 14 -37 -113 -52 -346 -41 -725 -154 -1024 -305 -39 -19 -74 -35 -79 -35
-5 0 -12 28 -16 63 -3 34 -13 87 -21 117 -8 30 -15 66 -15 80 0 48 65 71 388
140 370 78 482 111 582 174 30 19 60 34 66 35 6 1 31 -13 57 -29z m19 -419
c125 -79 143 -264 41 -411 -54 -77 -136 -139 -280 -211 -184 -92 -194 -115
-192 -425 1 -137 -2 -176 -14 -201 -35 -67 -109 -88 -365 -103 -431 -25 -504
-66 -794 -441 -54 -69 -123 -149 -153 -178 -59 -56 -142 -100 -206 -108 l-39
-6 0 80 c0 147 49 288 137 397 88 109 199 182 560 369 364 189 528 290 711
436 300 239 420 448 410 716 l-3 90 55 12 c79 16 82 16 132 -16z m-20 -836 c8
-70 0 -100 -53 -206 -75 -150 -219 -347 -373 -507 -221 -232 -639 -541 -1045
-774 -133 -76 -501 -268 -514 -268 -2 0 -7 33 -9 73 -3 39 -15 99 -27 131 -15
44 -18 62 -9 67 6 4 57 13 112 19 196 24 335 79 465 184 86 69 164 164 279
334 135 202 171 223 403 241 171 13 217 28 329 103 104 71 144 121 160 206 6
32 24 102 40 157 16 55 32 116 36 135 8 42 37 102 58 119 21 18 108 51 126 48
10 -2 17 -20 22 -62z m-6330 -172 c25 -23 22 -80 -11 -188 l-28 -90 -44 2
c-154 9 -204 70 -185 227 7 54 8 55 44 59 20 2 75 4 121 5 66 2 88 -2 103 -15z
m883 -277 c50 -8 144 -20 209 -26 113 -10 121 -12 156 -43 20 -18 50 -42 66
-54 l29 -22 -34 0 c-70 -2 -120 -38 -296 -216 -152 -154 -178 -176 -248 -211
-69 -33 -90 -38 -165 -42 -105 -5 -165 9 -205 49 -28 28 -29 34 -24 87 3 31
13 85 23 119 16 60 20 64 73 94 34 20 103 79 176 154 66 67 127 122 135 123 8
1 56 -5 105 -12z m5249 -253 c-283 -444 -876 -909 -1649 -1296 -261 -130 -267
-132 -321 -117 -25 7 -41 16 -37 20 4 4 62 31 128 60 541 237 1143 615 1516
953 123 111 258 257 339 367 29 38 55 70 57 70 2 0 -13 -26 -33 -57z m-2934
-104 c279 -97 337 -111 485 -116 100 -4 146 -1 193 11 100 25 162 56 183 90
23 37 23 37 9 -122 -16 -194 14 -409 75 -549 35 -79 65 -179 65 -220 0 -40
-22 -88 -45 -97 -9 -3 -30 -6 -47 -6 -25 0 -29 3 -23 18 15 34 17 111 5 161
-12 49 -13 50 -64 65 -61 18 -151 80 -190 131 -29 38 -81 75 -105 75 -8 0 -63
-49 -122 -109 -89 -90 -121 -116 -181 -144 -90 -43 -154 -57 -262 -57 -155 0
-274 56 -397 187 -66 71 -269 345 -275 373 -2 9 15 28 40 47 24 18 97 90 162
160 64 70 126 134 136 142 63 44 138 36 358 -40z m616 -999 c25 -27 68 -64 96
-81 l50 -32 -59 -24 c-187 -77 -630 -210 -838 -252 -282 -56 -534 -70 -650
-37 -107 31 -165 94 -165 177 0 59 29 103 94 144 47 28 55 30 155 30 117 0 96
7 301 -103 146 -78 220 -97 370 -97 110 0 134 4 198 27 109 39 216 111 312
209 47 48 86 88 87 88 1 1 23 -21 49 -49z m-2853 -394 c193 -164 461 -272 799
-322 147 -21 454 -29 636 -15 429 33 920 143 1374 307 97 35 179 64 181 64 2
0 -1 -18 -6 -39 -12 -46 -13 -46 -282 -138 -376 -128 -713 -208 -1073 -255
-226 -29 -648 -32 -822 -5 -302 47 -532 134 -712 269 -110 84 -191 178 -152
178 3 0 29 -20 57 -44z m3654 -36 c1 0 11 -10 23 -22 41 -45 13 -175 -55 -256
-39 -45 -118 -87 -180 -96 l-40 -6 25 17 c52 37 96 83 119 124 21 37 22 41 6
35 -130 -50 -250 -22 -347 81 -44 48 -84 110 -75 119 2 2 23 -3 47 -11 80 -28
141 -30 222 -5 87 27 181 39 223 28 16 -4 31 -8 32 -8z"/>
<path d="M4831 5693 c-34 -43 -10 -93 45 -93 56 0 83 61 44 100 -28 28 -64 25
-89 -7z"/>
<path d="M4391 5163 c-35 -43 -10 -93 45 -93 58 0 81 62 38 105 -24 23 -60 18
-83 -12z"/>
<path d="M5442 5124 c-33 -23 -27 -83 10 -103 25 -14 29 -14 55 5 39 29 41 66
7 93 -32 25 -42 26 -72 5z"/>
<path d="M2892 4634 c-33 -23 -27 -83 10 -103 25 -14 29 -14 55 5 39 29 41 66
7 93 -32 25 -42 26 -72 5z"/>
<path d="M4306 4228 c-22 -30 -20 -54 5 -79 27 -27 66 -21 92 12 17 24 18 30
6 55 -19 40 -79 47 -103 12z"/>
<path d="M1902 4044 c-45 -31 -19 -104 37 -104 55 0 80 61 41 100 -24 24 -48
25 -78 4z"/>
</g>
</svg>
