<svg>
	<symbol id="logo" width="199" height="44" viewBox="0 0 199 44" fill="currentColor" xmlns="http://www.w3.org/2000/svg">
		<path d="M9.93151 33.8599C9.07646 33.8599 8.42393 33.6289 7.9739 33.1669C7.52387 32.7049 7.29886 32.0449 7.29886 31.1868V21.6164L8.37892 24.5536L0.413461 13.4981C0.0984432 13.0361 -0.0365646 12.5411 0.00843799 12.0131C0.0534406 11.4631 0.278454 10.99 0.683477 10.594C1.0885 10.198 1.66228 10 2.40483 10C2.94486 10 3.42864 10.132 3.85616 10.396C4.30619 10.66 4.73371 11.078 5.13874 11.6501L10.539 19.2734H9.45899L14.8593 11.6501C15.2868 11.056 15.7031 10.638 16.1081 10.396C16.5356 10.132 17.0307 10 17.5932 10C18.3132 10 18.8758 10.187 19.2808 10.561C19.6858 10.913 19.8996 11.3641 19.9221 11.9141C19.9446 12.4421 19.7533 12.9921 19.3483 13.5641L11.4841 24.5536L12.5304 21.6164V31.1868C12.5304 32.9689 11.6641 33.8599 9.93151 33.8599Z"/>
		<path d="M27.6141 33.9259C25.8365 33.9259 24.2839 33.5849 22.9563 32.9029C21.6513 32.2209 20.6387 31.2418 19.9187 29.9658C19.1986 28.6897 18.8386 27.1827 18.8386 25.4446C18.8386 24.1466 19.0411 22.9805 19.4461 21.9465C19.8512 20.9124 20.4362 20.0324 21.2012 19.3064C21.9888 18.5583 22.9226 17.9973 24.0027 17.6233C25.0827 17.2273 26.2865 17.0293 27.6141 17.0293C29.3917 17.0293 30.9331 17.3703 32.2381 18.0523C33.5657 18.7343 34.5895 19.7024 35.3096 20.9564C36.0521 22.2105 36.4234 23.7065 36.4234 25.4446C36.4234 26.7647 36.2096 27.9417 35.7821 28.9757C35.3771 30.0098 34.792 30.9008 34.027 31.6488C33.2619 32.3969 32.3281 32.9689 31.2256 33.3649C30.1455 33.7389 28.9417 33.9259 27.6141 33.9259ZM27.6141 30.1968C28.3567 30.1968 28.9979 30.0208 29.538 29.6688C30.078 29.3167 30.5055 28.7997 30.8205 28.1177C31.1356 27.4137 31.2931 26.5226 31.2931 25.4446C31.2931 23.8385 30.9556 22.6615 30.2805 21.9135C29.6055 21.1434 28.7167 20.7584 27.6141 20.7584C26.8941 20.7584 26.2528 20.9234 25.6902 21.2534C25.1502 21.5834 24.7227 22.1005 24.4077 22.8045C24.1152 23.4865 23.9689 24.3666 23.9689 25.4446C23.9689 27.0507 24.3064 28.2497 24.9815 29.0417C25.6565 29.8118 26.534 30.1968 27.6141 30.1968Z"/>
		<path d="M45.6332 33.9259C44.2381 33.9259 43.0793 33.6729 42.1567 33.1669C41.2342 32.6609 40.5479 31.9018 40.0978 30.8898C39.6703 29.8558 39.4566 28.5797 39.4566 27.0617V19.6034C39.4566 18.7673 39.6703 18.1403 40.0978 17.7223C40.5479 17.3043 41.1779 17.0953 41.988 17.0953C42.798 17.0953 43.428 17.3043 43.8781 17.7223C44.3281 18.1403 44.5531 18.7673 44.5531 19.6034V27.1937C44.5531 28.1617 44.7556 28.8877 45.1606 29.3717C45.5657 29.8338 46.207 30.0648 47.0845 30.0648C48.0521 30.0648 48.8396 29.7348 49.4471 29.0747C50.0772 28.3927 50.3922 27.5017 50.3922 26.4016V19.6034C50.3922 18.7673 50.606 18.1403 51.0335 17.7223C51.4835 17.3043 52.1135 17.0953 52.9236 17.0953C53.7561 17.0953 54.3862 17.3043 54.8137 17.7223C55.2637 18.1403 55.4887 18.7673 55.4887 19.6034V31.3188C55.4887 33.0129 54.6674 33.8599 53.0248 33.8599C52.2148 33.8599 51.596 33.6399 51.1685 33.1999C50.741 32.7599 50.5272 32.1329 50.5272 31.3188V29.1077L51.0335 30.3948C50.5385 31.5168 49.8297 32.3859 48.9071 33.0019C47.9846 33.6179 46.8932 33.9259 45.6332 33.9259Z"/>
		<path d="M62.0651 33.8599C61.21 33.8599 60.5575 33.6399 60.1075 33.1999C59.6575 32.7599 59.4324 32.1329 59.4324 31.3188V19.6034C59.4324 18.7893 59.6462 18.1733 60.0737 17.7553C60.5238 17.3153 61.1425 17.0953 61.9301 17.0953C62.7401 17.0953 63.3589 17.3153 63.7864 17.7553C64.214 18.1733 64.4277 18.7893 64.4277 19.6034V21.3194H64.0902C64.3602 19.9994 64.9565 18.9763 65.8791 18.2503C66.8016 17.5243 67.9942 17.1173 69.4568 17.0293C70.0193 16.9853 70.4468 17.1283 70.7393 17.4583C71.0544 17.7663 71.2231 18.2833 71.2456 19.0093C71.2906 19.6914 71.1444 20.2304 70.8069 20.6264C70.4918 21.0224 69.9518 21.2644 69.1868 21.3524L68.4105 21.4184C67.1279 21.5284 66.1716 21.8915 65.5415 22.5075C64.934 23.1235 64.6302 24.0145 64.6302 25.1806V31.3188C64.6302 32.1329 64.4052 32.7599 63.9552 33.1999C63.5277 33.6399 62.8976 33.8599 62.0651 33.8599Z"/>
		<path d="M76.2109 33.8599C75.4458 33.8599 74.8608 33.6509 74.4558 33.2329C74.0507 32.8149 73.8482 32.2319 73.8482 31.4838V12.3761C73.8482 11.6281 74.062 11.045 74.4895 10.627C74.9395 10.209 75.5471 10 76.3121 10C76.9872 10 77.5159 10.132 77.8985 10.396C78.3035 10.638 78.6748 11.067 79.0123 11.6831L86.809 25.6096H85.6614L93.4581 11.6831C93.7956 11.067 94.1556 10.638 94.5382 10.396C94.9432 10.132 95.472 10 96.1245 10C96.8896 10 97.4746 10.209 97.8796 10.627C98.3071 11.045 98.5209 11.6281 98.5209 12.3761V31.4838C98.5209 32.2319 98.3184 32.8149 97.9134 33.2329C97.5083 33.6509 96.9233 33.8599 96.1583 33.8599C95.3932 33.8599 94.7969 33.6509 94.3694 33.2329C93.9644 32.8149 93.7619 32.2319 93.7619 31.4838V18.1183H94.5044L88.2266 29.1077C87.9565 29.5258 87.664 29.8448 87.349 30.0648C87.0565 30.2628 86.6627 30.3618 86.1677 30.3618C85.6727 30.3618 85.2676 30.2518 84.9526 30.0318C84.6376 29.8118 84.3563 29.5038 84.1088 29.1077L77.7635 18.0853H78.5735V31.4838C78.5735 32.2319 78.371 32.8149 77.966 33.2329C77.5834 33.6509 76.9984 33.8599 76.2109 33.8599Z"/>
		<path d="M111.515 33.9259C109.557 33.9259 107.869 33.5849 106.452 32.9029C105.057 32.1989 103.977 31.2198 103.212 29.9658C102.469 28.6897 102.098 27.1937 102.098 25.4776C102.098 23.8055 102.458 22.3425 103.178 21.0884C103.898 19.8124 104.899 18.8223 106.182 18.1183C107.487 17.3923 108.961 17.0293 110.603 17.0293C111.796 17.0293 112.876 17.2273 113.843 17.6233C114.811 17.9973 115.644 18.5473 116.341 19.2734C117.039 19.9774 117.567 20.8464 117.927 21.8805C118.287 22.8925 118.468 24.0255 118.468 25.2796C118.468 25.6976 118.332 26.0166 118.062 26.2366C117.792 26.4346 117.399 26.5336 116.881 26.5336H106.283V23.9595H114.789L114.249 24.4216C114.249 23.5195 114.114 22.7715 113.843 22.1775C113.573 21.5614 113.18 21.0994 112.662 20.7914C112.167 20.4834 111.548 20.3294 110.806 20.3294C109.973 20.3294 109.264 20.5164 108.679 20.8904C108.094 21.2644 107.644 21.8035 107.329 22.5075C107.014 23.2115 106.857 24.0585 106.857 25.0486V25.3126C106.857 26.9847 107.251 28.2167 108.038 29.0087C108.848 29.8008 110.041 30.1968 111.616 30.1968C112.156 30.1968 112.775 30.1308 113.472 29.9988C114.17 29.8668 114.822 29.6578 115.43 29.3717C115.947 29.1297 116.409 29.0527 116.814 29.1407C117.219 29.2067 117.534 29.3828 117.759 29.6688C117.984 29.9548 118.107 30.2848 118.13 30.6588C118.175 31.0328 118.096 31.4068 117.894 31.7808C117.691 32.1329 117.354 32.4299 116.881 32.6719C116.116 33.0899 115.25 33.3979 114.282 33.5959C113.337 33.8159 112.415 33.9259 111.515 33.9259Z"/>
		<path d="M127.035 33.9259C125.82 33.9259 124.728 33.6949 123.761 33.2329C122.793 32.7709 122.039 32.1439 121.499 31.3518C120.959 30.5598 120.689 29.6688 120.689 28.6787C120.689 27.4907 121.004 26.5556 121.634 25.8736C122.264 25.1696 123.288 24.6746 124.706 24.3886C126.123 24.0805 128.002 23.9265 130.342 23.9265H132.131V26.5006H130.376C129.229 26.5006 128.295 26.5666 127.575 26.6986C126.877 26.8087 126.371 27.0067 126.056 27.2927C125.763 27.5787 125.617 27.9747 125.617 28.4807C125.617 29.0967 125.831 29.6028 126.258 29.9988C126.708 30.3948 127.35 30.5928 128.182 30.5928C128.835 30.5928 129.409 30.4498 129.904 30.1638C130.421 29.8558 130.826 29.4488 131.119 28.9427C131.411 28.4147 131.557 27.8207 131.557 27.1607V23.3655C131.557 22.3975 131.332 21.7155 130.882 21.3194C130.432 20.9014 129.667 20.6924 128.587 20.6924C127.98 20.6924 127.316 20.7694 126.596 20.9234C125.898 21.0554 125.122 21.2864 124.267 21.6164C123.772 21.8365 123.333 21.8915 122.951 21.7815C122.568 21.6495 122.276 21.4294 122.073 21.1214C121.871 20.7914 121.769 20.4394 121.769 20.0654C121.769 19.6694 121.882 19.2954 122.107 18.9433C122.332 18.5693 122.703 18.2943 123.221 18.1183C124.278 17.7003 125.268 17.4143 126.191 17.2603C127.136 17.1063 128.002 17.0293 128.79 17.0293C130.522 17.0293 131.94 17.2823 133.043 17.7883C134.168 18.2723 135.011 19.0314 135.574 20.0654C136.136 21.0774 136.418 22.3865 136.418 23.9925V31.3188C136.418 32.1329 136.215 32.7599 135.81 33.1999C135.405 33.6399 134.82 33.8599 134.055 33.8599C133.29 33.8599 132.694 33.6399 132.266 33.1999C131.861 32.7599 131.659 32.1329 131.659 31.3188V30.0978L131.895 30.2958C131.76 31.0438 131.467 31.6928 131.017 32.2429C130.59 32.7709 130.039 33.1889 129.364 33.4969C128.689 33.7829 127.912 33.9259 127.035 33.9259Z"/>
		<path d="M146.194 33.9259C144.191 33.9259 142.695 33.3869 141.705 32.3089C140.715 31.2088 140.22 29.5808 140.22 27.4247V12.5411C140.22 11.7051 140.433 11.078 140.861 10.66C141.311 10.22 141.952 10 142.785 10C143.595 10 144.214 10.22 144.641 10.66C145.091 11.078 145.316 11.7051 145.316 12.5411V27.2267C145.316 28.1287 145.507 28.7997 145.89 29.2397C146.295 29.6578 146.824 29.8668 147.476 29.8668C147.656 29.8668 147.825 29.8558 147.983 29.8338C148.14 29.8118 148.309 29.8008 148.489 29.8008C148.849 29.7568 149.096 29.8668 149.231 30.1308C149.389 30.3728 149.468 30.8678 149.468 31.6158C149.468 32.2759 149.333 32.7819 149.063 33.1339C148.793 33.4639 148.376 33.6839 147.814 33.7939C147.589 33.8159 147.33 33.8379 147.037 33.8599C146.745 33.9039 146.464 33.9259 146.194 33.9259Z"/>
		<path d="M189.546 9.76526L193.188 9.64984V22.5771H188.794L189.546 9.76526Z" fill="transparent"/>
		<ellipse cx="178.328" cy="32.0417" rx="4.33653" ry="5.54027" fill="transparent"/>
		<path d="M170.372 13.9782C170.372 17.038 168.257 16.5175 165.862 16.5175C163.467 16.5175 161.872 15.7095 161.872 14.613C161.872 11.5532 163.64 11.1503 166.035 11.1503C168.43 11.1503 170.372 10.9184 170.372 13.9782Z" fill="transparent"/>
		<path d="M159.718 4.03683C159.504 4.15614 159.223 4.41178 159.077 4.60777L158.821 4.97419V9.54167V14.1177L159.043 14.6886C159.846 16.7423 161.57 18.1057 163.645 18.3187L164.2 18.3784L164.243 28.6893L164.285 39.0002L164.473 39.307C164.584 39.4774 164.832 39.7245 165.028 39.8609C165.344 40.0824 165.455 40.108 166.036 40.108C166.608 40.108 166.727 40.0824 167.026 39.8779C167.205 39.7501 167.453 39.503 167.572 39.324L167.786 39.0087L167.828 28.6978L167.871 18.3784L168.426 18.3187C170.552 18.1057 172.413 16.5804 173.062 14.5437C173.25 13.9558 173.25 13.862 173.25 9.46498V4.98271L173.019 4.65038C172.644 4.12205 172.251 3.90049 171.593 3.86641C170.893 3.83232 170.39 4.0624 170.005 4.60777L169.749 4.97419L169.707 7.11306L169.664 9.26046H168.768H167.871L167.828 7.12159C167.786 5.0168 167.786 4.98271 167.572 4.67594C167.214 4.13909 166.778 3.90049 166.129 3.86641C165.429 3.83232 164.926 4.0624 164.541 4.60777L164.285 4.97419L164.243 7.11306L164.2 9.26046H163.303H162.407L162.364 7.12159L162.322 4.98271L162.091 4.65038C161.716 4.12205 161.323 3.90049 160.665 3.86641C160.196 3.84084 160.034 3.87493 159.718 4.03683ZM169.621 13.1377C169.621 13.6575 169.203 14.2284 168.597 14.5523C168.324 14.6971 168.085 14.7142 166.036 14.7142C163.884 14.7142 163.756 14.7056 163.432 14.5267C162.851 14.2199 162.45 13.649 162.45 13.1377V12.8821H166.036H169.621V13.1377Z"/>
		<path d="M177.416 4.03684C177.203 4.15614 176.921 4.41178 176.776 4.60777L176.52 4.9742L176.477 14.4756L176.435 23.9769L175.717 24.19C173.925 24.7013 172.584 25.775 171.833 27.2832C171.175 28.6211 171.064 29.175 171.064 31.1179C171.064 32.541 171.09 32.8818 171.244 33.5039C172.08 36.8017 173.933 39.0513 176.52 39.912C177.024 40.0739 177.297 40.108 178.27 40.108C179.243 40.108 179.517 40.0739 180.02 39.912C182.607 39.0513 184.46 36.8017 185.297 33.5039C185.45 32.8818 185.476 32.541 185.476 31.1179C185.476 29.6863 185.45 29.3625 185.288 28.7745C184.648 26.4141 183.119 24.8461 180.823 24.19L180.106 23.9769L180.063 14.4841L180.02 4.98272L179.79 4.65038C179.414 4.12206 179.021 3.9005 178.364 3.86641C177.894 3.84085 177.732 3.87494 177.416 4.03684ZM179.952 27.7093C180.908 28.0331 181.531 28.7745 181.771 29.8482C181.933 30.5896 181.839 32.4472 181.6 33.2056C181.156 34.6031 180.311 35.7791 179.397 36.2393C178.825 36.529 177.724 36.5375 177.16 36.2478C176.187 35.745 175.402 34.6543 174.923 33.163C174.753 32.6006 174.727 32.3535 174.727 31.1179C174.727 29.7459 174.736 29.7033 174.975 29.175C175.402 28.2547 176.272 27.6582 177.416 27.5048C177.416 27.5048 179.423 27.5389 179.952 27.7093Z"/>
		<path d="M193.877 4.00275C192.785 4.57368 191.094 6.12458 190.053 7.49653C187.457 10.9477 185.946 15.8219 185.596 21.9148C185.468 24.1474 185.528 24.4797 186.117 25.0677C186.689 25.6386 186.842 25.6642 190.087 25.6642H192.87V32.2512V38.8468L193.066 39.2047C193.169 39.4092 193.425 39.6904 193.63 39.8438C193.963 40.0824 194.048 40.108 194.654 40.108C195.235 40.108 195.354 40.0824 195.653 39.8779C195.832 39.7501 196.08 39.503 196.2 39.324L196.413 39.0087V22V4.98271L196.183 4.65038C195.807 4.11353 195.414 3.90049 194.757 3.86641C194.33 3.84937 194.116 3.87493 193.877 4.00275ZM192.87 15.9498V22H191.06H189.259L189.318 21.1223C189.472 18.7789 190.044 15.9498 190.787 13.862C191.282 12.4816 192.614 9.89957 192.827 9.89957C192.853 9.89957 192.87 12.6179 192.87 15.9498Z"/>
	</symbol>
</svg>